<svg xmlns="http://www.w3.org/2000/svg" version="1.1" xmlns:xlink="http://www.w3.org/1999/xlink" xmlns:svgjs="http://svgjs.dev/svgjs" width="1440" height="560" preserveAspectRatio="none" viewBox="0 0 1440 560"><g mask="url(&quot;#SvgjsMask1013&quot;)" fill="none"><rect width="1440" height="560" x="0" y="0" fill="rgba(243, 216, 179, 1)"></rect><path d="M-50.84 431.11C68.36 427.04 160.34 238.76 386.6 240.71 612.87 242.66 675.57 630.44 824.05 662.91" stroke="rgba(245, 245, 245, 0.44)" stroke-width="2"></path><path d="M-272.79 459.97C-97.99 459.07 66.32 308.52 409.89 308.77 753.46 309.02 905.53 609.15 1092.57 616.13" stroke="rgba(245, 245, 245, 0.44)" stroke-width="2"></path><path d="M-206.8 225.26C-105.47 223.98-36.54 96.3 181.13 107.66 398.8 119.02 418.66 564.81 569.06 622.95" stroke="rgba(245, 245, 245, 0.44)" stroke-width="2"></path><path d="M-11.24 45.89C93.61 46.14 195.52 115.89 402.28 115.89 609.04 115.89 576.27 28.05 815.81 45.89 1055.35 63.73 1067.8 540.69 1229.33 604.93" stroke="rgba(245, 245, 245, 0.44)" stroke-width="2"></path><path d="M-156.09 198.2C29.53 199.96 272.49 387.19 560.08 394.2 847.67 401.21 813.88 602.44 918.16 610.63" stroke="rgba(245, 245, 245, 0.44)" stroke-width="2"></path></g><defs><mask id="SvgjsMask1013"><rect width="1440" height="560" fill="#ffffff"></rect></mask></defs></svg>