<svg xmlns="http://www.w3.org/2000/svg" version="1.1" xmlns:xlink="http://www.w3.org/1999/xlink" xmlns:svgjs="http://svgjs.dev/svgjs" width="1440" height="900" preserveAspectRatio="none" viewBox="0 0 1440 900"><g mask="url(&quot;#SvgjsMask2490&quot;)" fill="none"><rect width="1440" height="900" x="0" y="0" fill="rgba(221, 194, 152, 1)"></rect><path d="M65 900L965 0L1077.5 0L177.5 900z" fill="url(&quot;#SvgjsLinearGradient2491&quot;)"></path><path d="M521.2 900L1421.2 0L1503.7 0L603.7 900z" fill="url(&quot;#SvgjsLinearGradient2491&quot;)"></path><path d="M1405 900L505 0L-63.5 0L836.5 900z" fill="url(&quot;#SvgjsLinearGradient2492&quot;)"></path><path d="M944.8 900L44.799999999999955 0L-159.20000000000005 0L740.8 900z" fill="url(&quot;#SvgjsLinearGradient2492&quot;)"></path><path d="M784.5510350009529 900L1440 244.55103500095288L1440 900z" fill="url(&quot;#SvgjsLinearGradient2491&quot;)"></path><path d="M0 900L655.4489649990471 900L 0 244.55103500095288z" fill="url(&quot;#SvgjsLinearGradient2492&quot;)"></path></g><defs><mask id="SvgjsMask2490"><rect width="1440" height="900" fill="#ffffff"></rect></mask><linearGradient x1="0%" y1="100%" x2="100%" y2="0%" id="SvgjsLinearGradient2491"><stop stop-color="rgba(200, 174, 125, 1)" offset="0"></stop><stop stop-opacity="0" stop-color="rgba(200, 174, 125, 1)" offset="0.66"></stop></linearGradient><linearGradient x1="100%" y1="100%" x2="0%" y2="0%" id="SvgjsLinearGradient2492"><stop stop-color="rgba(200, 174, 125, 1)" offset="0"></stop><stop stop-opacity="0" stop-color="rgba(200, 174, 125, 1)" offset="0.66"></stop></linearGradient></defs></svg>